<?xml version="1.0" encoding="utf-8"?>
<!-- Generator: Adobe Illustrator 25.0.1, SVG Export Plug-In . SVG Version: 6.00 Build 0)  -->
<svg version="1.1" id="Layer_1" xmlns="http://www.w3.org/2000/svg" xmlns:xlink="http://www.w3.org/1999/xlink" x="0px" y="0px"
	 viewBox="0 0 1138.4 816.4" style="enable-background:new 0 0 1138.4 816.4;" xml:space="preserve">
<style type="text/css">
	.st0{fill:#0F4C81;}
	.st1{fill:#2296F3;}
</style>
<g>
	<g>
		<path class="st0" d="M590.7,444.2c-2.3-3.9-5.3-7.2-9-9.9c-3.5-2.6-7.4-4.8-11.7-6.6c-4.1-1.7-8.2-3.2-12.3-4.4
			c-3.1-0.9-6.1-1.9-9-2.9c-2.7-1-5.2-2-7.3-3.1c-1.8-1-3.3-2-4.4-3.1c-0.6-0.7-0.9-1.3-0.9-2.2v-0.4c0-1.9,0.7-3.3,2.4-4.5
			c1.9-1.5,4.9-2.2,8.7-2.2c4,0,8.6,0.9,13.5,2.6c5,1.7,10.1,4.1,15.1,7.1l3.6,2.2l13.8-24.8l-3.1-2.1c-6.1-4.1-12.8-7.3-20.2-9.7
			c-7.4-2.3-14.8-3.5-22-3.5c-5.7,0-11.2,0.8-16.4,2.5c-5.2,1.7-9.8,4.1-13.7,7.3c-3.9,3.2-7.1,7.2-9.3,11.9
			c-2.3,4.6-3.4,9.9-3.4,15.5v0.4c0,5.9,1.2,11,3.6,15.2c2.3,4,5.4,7.5,9,10.2c3.5,2.6,7.5,4.8,11.9,6.4c4.2,1.5,8.3,2.9,12.3,4
			c3.1,1,6.2,1.9,9.1,2.9c2.7,0.9,5.2,1.9,7.3,2.9c1.7,0.8,3.1,1.8,4,2.9c0.7,0.8,1,1.6,1,2.6v0.4c0,2.2-0.8,3.8-2.7,5.2
			c-2.2,1.6-5.6,2.4-10.1,2.4c-5.1,0-10.5-1.1-16.2-3.1c-5.7-2.1-11.4-5.3-17-9.4l-3.5-2.6l-15.6,23.7l3,2.3
			c7.2,5.7,15.1,10,23.5,12.9c8.4,2.9,16.9,4.4,25.1,4.4c6,0,11.7-0.8,17-2.3c5.4-1.6,10.2-3.9,14.2-7.1c4.1-3.2,7.4-7.2,9.7-12
			c2.3-4.8,3.5-10.4,3.5-16.8v-0.4C594.4,453.2,593.2,448.3,590.7,444.2z"/>
	</g>
	<g>
		<path class="st0" d="M702.3,330.2c4.8,0,9,0.3,12.5,0.9c3.4,0.6,6.7,1.4,9.7,2.3l1.8,0.5v27.7l-3.3-1.1c-2.5-0.8-5-1.5-7.3-2
			c-2.2-0.5-4.7-0.7-7.5-0.7c-8.8,0-12.8,4.8-12.8,15v2v1.9h1.9h10.9l11.4,26.9h-21.9h-1.9v1.9v91.1H664v-91.1v-1.9h-1.9h-12.8
			v-26.9h12.8h1.9l0,0v-6c0-13.5,3.4-23.8,10.2-30.5C680.9,333.5,690.3,330.2,702.3,330.2"/>
	</g>
	<g>
		<g>
			<path class="st0" d="M845.9,376.7l-47.4,122.6c-2.4,6.1-4.9,11.3-7.4,15.5c-2.6,4.3-5.6,7.9-8.9,10.6c-3.3,2.8-7,4.8-10.9,6.1
				c-3.9,1.2-8.4,1.9-13.3,1.9c-5.8,0-11-0.7-15.5-2c-4.5-1.3-8.9-3.1-13.1-5.4l-2.1-1.1l11.1-24.3l2.4,1.2c2.3,1.2,4.7,2.2,7.1,3
				c2.3,0.7,4.7,1.1,7.2,1.1c3.3,0,5.8-0.8,7.9-2.3c1.8-1.4,3.7-4,5.5-7.8l0.4-0.7l-0.3-0.8l-48.9-117.6h33.8l29.2,76.5l1.8,4.8
				l1.7-4.8l26.7-76.4H845.9"/>
		</g>
	</g>
	<g>
		<path class="st0" d="M492.6,376.7h-33.9v66.5c0,7.6-1.9,13.3-5.7,17.3c-3.8,4-8.6,5.9-14.8,5.9c-6.3,0-10.9-1.8-14.2-5.6
			c-3.4-3.9-5.1-9.7-5.1-17.2v-66.9h-33.9v74.6c0,21,24,46.1,54,46.1c29.9,0,53.5-25.1,53.7-46.1c0,0,0-0.1,0-0.1V376.7z"/>
	</g>
	<g>
		<path class="st0" d="M637.8,376.7v120.8H606V376.7H637.8"/>
	</g>
	<circle class="st0" cx="621.9" cy="348.8" r="18.6"/>
	<g>
		<path class="st1" d="M946.6,299.2H875c-3,0-5.4-2.4-5.4-5.4v-5.3c0-3,2.4-5.4,5.4-5.4h71.6c3,0,5.4,2.4,5.4,5.4v5.3
			C952,296.7,949.6,299.2,946.6,299.2z"/>
		<path class="st1" d="M927.1,325h-71.6c-3,0-5.4-2.4-5.4-5.4v-5.3c0-3,2.4-5.4,5.4-5.4h71.6c3,0,5.4,2.4,5.4,5.4v5.3
			C932.5,322.6,930,325,927.1,325z"/>
		<path class="st1" d="M922.9,350.8h-71.6c-3,0-5.4-2.4-5.4-5.4v-5.3c0-3,2.4-5.4,5.4-5.4h71.6c3,0,5.4,2.4,5.4,5.4v5.3
			C928.3,348.4,925.9,350.8,922.9,350.8z"/>
		<path class="st1" d="M934.8,376.7h-71.6c-3,0-5.4-2.4-5.4-5.4V366c0-3,2.4-5.4,5.4-5.4h71.6c3,0,5.4,2.4,5.4,5.4v5.3
			C940.1,374.2,937.7,376.7,934.8,376.7z"/>
	</g>
	<path class="st0" d="M361.4,382.8c-8-8.5-19.1-12.8-33-12.8c-9.6,0-18,2.1-25,6.2c-5.5,3.2-10.4,7.3-14.7,12.2
		c-3.2-4.9-7.2-8.9-12.2-12.1c-6.4-4.2-14.3-6.3-23.4-6.3c-4.8,0-9.2,0.6-13.2,1.8c-4,1.2-7.6,2.9-10.7,5.1
		c-3.1,2.1-5.9,4.5-8.3,7.1c-0.1,0.1-0.3,0.3-0.4,0.4v-11.9h-34.1v125.1h34.1v-69.8c0-8.3,2-14.9,6.1-19.4c4-4.5,9.1-6.7,15.8-6.7
		c6.6,0,11.5,2,15,6.2c3.6,4.3,5.4,10.7,5.4,19.1v70.7h34.1v-70c0-8.6,2.1-15.2,6.1-19.5c4.1-4.3,9.2-6.4,15.7-6.4
		c6.6,0,11.5,2,15,6.2c3.6,4.3,5.4,10.8,5.4,19.3v70.4h34.1v-78.9C373.3,403.3,369.3,391.2,361.4,382.8z"/>
</g>
</svg>
